<svg xmlns="http://www.w3.org/2000/svg" xmlns:xlink="http://www.w3.org/1999/xlink" width="500" zoomAndPan="magnify" viewBox="0 0 375 149.999998" height="200" preserveAspectRatio="xMidYMid meet" version="1.0"><defs><g/></defs><g fill="#2563eb" fill-opacity="1"><g transform="translate(87.403716, 88.061346)"><g><path d="M 3.203125 0 L 3.203125 -27.375 L 12.640625 -27.375 L 12.640625 -24.484375 L 12.75 -24.484375 C 15.207031 -26.941406 17.820312 -28.171875 20.59375 -28.171875 C 22.582031 -28.171875 24.445312 -27.757812 26.1875 -26.9375 C 27.9375 -26.125 29.253906 -24.863281 30.140625 -23.15625 C 32.921875 -26.5 35.945312 -28.171875 39.21875 -28.171875 C 42.132812 -28.171875 44.640625 -27.351562 46.734375 -25.71875 C 48.835938 -24.082031 49.890625 -21.519531 49.890625 -18.03125 L 49.890625 0 L 40.453125 0 L 40.453125 -15.46875 C 40.453125 -16.925781 40.050781 -18.144531 39.25 -19.125 C 38.445312 -20.101562 37.242188 -20.59375 35.640625 -20.59375 C 34.253906 -20.59375 33.195312 -20.175781 32.46875 -19.34375 C 31.738281 -18.507812 31.335938 -17.503906 31.265625 -16.328125 L 31.265625 0 L 21.828125 0 L 21.828125 -15.46875 C 21.828125 -16.925781 21.425781 -18.144531 20.625 -19.125 C 19.820312 -20.101562 18.617188 -20.59375 17.015625 -20.59375 C 15.554688 -20.59375 14.460938 -20.140625 13.734375 -19.234375 C 13.003906 -18.328125 12.640625 -17.25 12.640625 -16 L 12.640625 0 Z M 3.203125 0 "/></g></g></g><g fill="#2563eb" fill-opacity="1"><g transform="translate(134.941383, 88.061346)"><g><path d="M 4.109375 -42.625 C 5.210938 -43.726562 6.53125 -44.28125 8.0625 -44.28125 C 9.59375 -44.28125 10.90625 -43.726562 12 -42.625 C 13.101562 -41.53125 13.65625 -40.21875 13.65625 -38.6875 C 13.65625 -37.15625 13.101562 -35.835938 12 -34.734375 C 10.90625 -33.628906 9.59375 -33.078125 8.0625 -33.078125 C 6.53125 -33.078125 5.210938 -33.628906 4.109375 -34.734375 C 3.003906 -35.835938 2.453125 -37.15625 2.453125 -38.6875 C 2.453125 -40.21875 3.003906 -41.53125 4.109375 -42.625 Z M 3.203125 -27.375 L 3.203125 0 L 12.640625 0 L 12.640625 -27.375 Z M 3.203125 -27.375 "/></g></g></g><g fill="#2563eb" fill-opacity="1"><g transform="translate(146.038412, 88.061346)"><g><path d="M 3.203125 0 L 3.203125 -27.375 L 12.640625 -27.375 L 12.640625 -24.484375 L 12.75 -24.484375 C 15.207031 -26.941406 17.820312 -28.171875 20.59375 -28.171875 C 21.945312 -28.171875 23.289062 -27.992188 24.625 -27.640625 C 25.957031 -27.285156 27.238281 -26.734375 28.46875 -25.984375 C 29.695312 -25.234375 30.691406 -24.171875 31.453125 -22.796875 C 32.222656 -21.429688 32.609375 -19.84375 32.609375 -18.03125 L 32.609375 0 L 23.15625 0 L 23.15625 -15.46875 C 23.15625 -16.894531 22.703125 -18.140625 21.796875 -19.203125 C 20.890625 -20.273438 19.707031 -20.8125 18.25 -20.8125 C 16.820312 -20.8125 15.53125 -20.257812 14.375 -19.15625 C 13.21875 -18.050781 12.640625 -16.820312 12.640625 -15.46875 L 12.640625 0 Z M 3.203125 0 "/></g></g></g><g fill="#2563eb" fill-opacity="1"><g transform="translate(176.289451, 88.061346)"><g><path d="M 15.09375 -28.171875 C 16.664062 -28.171875 18.210938 -27.992188 19.734375 -27.640625 C 21.265625 -27.285156 22.40625 -26.929688 23.15625 -26.578125 L 24.28125 -26.046875 L 21.1875 -19.84375 C 19.050781 -20.988281 17.019531 -21.5625 15.09375 -21.5625 C 14.03125 -21.5625 13.273438 -21.441406 12.828125 -21.203125 C 12.390625 -20.972656 12.171875 -20.539062 12.171875 -19.90625 C 12.171875 -19.757812 12.1875 -19.613281 12.21875 -19.46875 C 12.25 -19.332031 12.316406 -19.203125 12.421875 -19.078125 C 12.535156 -18.953125 12.632812 -18.84375 12.71875 -18.75 C 12.8125 -18.664062 12.960938 -18.566406 13.171875 -18.453125 C 13.390625 -18.347656 13.5625 -18.269531 13.6875 -18.21875 C 13.8125 -18.164062 14.015625 -18.085938 14.296875 -17.984375 C 14.585938 -17.878906 14.800781 -17.796875 14.9375 -17.734375 C 15.082031 -17.679688 15.320312 -17.601562 15.65625 -17.5 C 16 -17.394531 16.257812 -17.320312 16.4375 -17.28125 C 17.539062 -16.96875 18.5 -16.613281 19.3125 -16.21875 C 20.132812 -15.832031 21 -15.300781 21.90625 -14.625 C 22.8125 -13.945312 23.515625 -13.09375 24.015625 -12.0625 C 24.515625 -11.03125 24.765625 -9.851562 24.765625 -8.53125 C 24.765625 -2.3125 20.441406 0.796875 11.796875 0.796875 C 9.835938 0.796875 7.976562 0.492188 6.21875 -0.109375 C 4.457031 -0.710938 3.1875 -1.316406 2.40625 -1.921875 L 1.234375 -2.875 L 5.0625 -9.34375 C 5.351562 -9.09375 5.726562 -8.796875 6.1875 -8.453125 C 6.65625 -8.117188 7.492188 -7.65625 8.703125 -7.0625 C 9.910156 -6.476562 10.957031 -6.1875 11.84375 -6.1875 C 13.800781 -6.1875 14.78125 -6.84375 14.78125 -8.15625 C 14.78125 -8.769531 14.53125 -9.242188 14.03125 -9.578125 C 13.53125 -9.910156 12.6875 -10.289062 11.5 -10.71875 C 10.3125 -11.144531 9.378906 -11.539062 8.703125 -11.90625 C 6.992188 -12.789062 5.640625 -13.789062 4.640625 -14.90625 C 3.640625 -16.03125 3.140625 -17.519531 3.140625 -19.375 C 3.140625 -22.144531 4.21875 -24.300781 6.375 -25.84375 C 8.53125 -27.394531 11.4375 -28.171875 15.09375 -28.171875 Z M 15.09375 -28.171875 "/></g></g></g><g fill="#2563eb" fill-opacity="1"><g transform="translate(197.523703, 88.061346)"><g><path d="M 4.109375 -42.625 C 5.210938 -43.726562 6.53125 -44.28125 8.0625 -44.28125 C 9.59375 -44.28125 10.90625 -43.726562 12 -42.625 C 13.101562 -41.53125 13.65625 -40.21875 13.65625 -38.6875 C 13.65625 -37.15625 13.101562 -35.835938 12 -34.734375 C 10.90625 -33.628906 9.59375 -33.078125 8.0625 -33.078125 C 6.53125 -33.078125 5.210938 -33.628906 4.109375 -34.734375 C 3.003906 -35.835938 2.453125 -37.15625 2.453125 -38.6875 C 2.453125 -40.21875 3.003906 -41.53125 4.109375 -42.625 Z M 3.203125 -27.375 L 3.203125 0 L 12.640625 0 L 12.640625 -27.375 Z M 3.203125 -27.375 "/></g></g></g><g fill="#2563eb" fill-opacity="1"><g transform="translate(208.620733, 88.061346)"><g><path d="M 4.109375 -42.625 C 5.210938 -43.726562 6.53125 -44.28125 8.0625 -44.28125 C 9.59375 -44.28125 10.90625 -43.726562 12 -42.625 C 13.101562 -41.53125 13.65625 -40.21875 13.65625 -38.6875 C 13.65625 -37.15625 13.101562 -35.835938 12 -34.734375 C 10.90625 -33.628906 9.59375 -33.078125 8.0625 -33.078125 C 6.53125 -33.078125 5.210938 -33.628906 4.109375 -34.734375 C 3.003906 -35.835938 2.453125 -37.15625 2.453125 -38.6875 C 2.453125 -40.21875 3.003906 -41.53125 4.109375 -42.625 Z M 3.203125 -27.375 L 3.203125 0 L 12.640625 0 L 12.640625 -27.375 Z M 3.203125 -27.375 "/></g></g></g><g fill="#2563eb" fill-opacity="1"><g transform="translate(219.71777, 88.061346)"><g><path d="M 5.0625 -3.390625 C 2.507812 -6.179688 1.234375 -9.601562 1.234375 -13.65625 C 1.234375 -17.71875 2.507812 -21.148438 5.0625 -23.953125 C 7.625 -26.765625 10.878906 -28.171875 14.828125 -28.171875 C 18.460938 -28.171875 21.453125 -27.035156 23.796875 -24.765625 L 23.796875 -45.890625 L 33.25 -45.890625 L 33.25 0 L 23.90625 0 L 23.90625 -3.09375 L 23.796875 -3.09375 C 21.453125 -0.5 18.460938 0.796875 14.828125 0.796875 C 10.878906 0.796875 7.625 -0.597656 5.0625 -3.390625 Z M 13.09375 -18.296875 C 11.875 -17.085938 11.265625 -15.539062 11.265625 -13.65625 C 11.265625 -11.769531 11.847656 -10.226562 13.015625 -9.03125 C 14.191406 -7.84375 15.738281 -7.25 17.65625 -7.25 C 19.507812 -7.25 21.03125 -7.851562 22.21875 -9.0625 C 23.414062 -10.28125 24.015625 -11.8125 24.015625 -13.65625 C 24.015625 -15.539062 23.398438 -17.085938 22.171875 -18.296875 C 20.941406 -19.503906 19.4375 -20.109375 17.65625 -20.109375 C 15.84375 -20.109375 14.320312 -19.503906 13.09375 -18.296875 Z M 13.09375 -18.296875 "/></g></g></g><g fill="#2563eb" fill-opacity="1"><g transform="translate(251.142603, 88.061346)"><g><path d="M 5.0625 -3.390625 C 2.507812 -6.179688 1.234375 -9.601562 1.234375 -13.65625 C 1.234375 -17.71875 2.507812 -21.148438 5.0625 -23.953125 C 7.625 -26.765625 10.878906 -28.171875 14.828125 -28.171875 C 18.460938 -28.171875 21.453125 -27.035156 23.796875 -24.765625 L 23.796875 -27.375 L 33.25 -27.375 L 33.25 0 L 23.90625 0 L 23.90625 -3.09375 L 23.796875 -3.09375 C 21.453125 -0.5 18.460938 0.796875 14.828125 0.796875 C 10.878906 0.796875 7.625 -0.597656 5.0625 -3.390625 Z M 13.09375 -18.296875 C 11.875 -17.085938 11.265625 -15.539062 11.265625 -13.65625 C 11.265625 -11.769531 11.847656 -10.226562 13.015625 -9.03125 C 14.191406 -7.84375 15.738281 -7.25 17.65625 -7.25 C 19.507812 -7.25 21.03125 -7.851562 22.21875 -9.0625 C 23.414062 -10.28125 24.015625 -11.8125 24.015625 -13.65625 C 24.015625 -15.539062 23.398438 -17.085938 22.171875 -18.296875 C 20.941406 -19.503906 19.4375 -20.109375 17.65625 -20.109375 C 15.84375 -20.109375 14.320312 -19.503906 13.09375 -18.296875 Z M 13.09375 -18.296875 "/></g></g></g></svg>