<svg xmlns="http://www.w3.org/2000/svg" xmlns:xlink="http://www.w3.org/1999/xlink" width="400" zoomAndPan="magnify" viewBox="0 0 375 374.999991" height="500" preserveAspectRatio="xMidYMid meet" version="1.0"><defs><g/></defs><g fill="#2563eb" fill-opacity="1"><g transform="translate(28.831621, 207.384361)"><g><path d="M 5.078125 0 L 5.078125 -43.390625 L 20.046875 -43.390625 L 20.046875 -38.828125 L 20.21875 -38.828125 C 24.101562 -42.710938 28.242188 -44.65625 32.640625 -44.65625 C 35.804688 -44.65625 38.769531 -44.003906 41.53125 -42.703125 C 44.289062 -41.410156 46.375 -39.410156 47.78125 -36.703125 C 52.1875 -42.003906 56.984375 -44.65625 62.171875 -44.65625 C 66.785156 -44.65625 70.753906 -43.359375 74.078125 -40.765625 C 77.410156 -38.171875 79.078125 -34.113281 79.078125 -28.59375 L 79.078125 0 L 64.109375 0 L 64.109375 -24.53125 C 64.109375 -26.84375 63.472656 -28.769531 62.203125 -30.3125 C 60.929688 -31.863281 59.03125 -32.640625 56.5 -32.640625 C 54.300781 -32.640625 52.625 -31.976562 51.46875 -30.65625 C 50.3125 -29.332031 49.675781 -27.738281 49.5625 -25.875 L 49.5625 0 L 34.59375 0 L 34.59375 -24.53125 C 34.59375 -26.84375 33.957031 -28.769531 32.6875 -30.3125 C 31.414062 -31.863281 29.515625 -32.640625 26.984375 -32.640625 C 24.671875 -32.640625 22.9375 -31.921875 21.78125 -30.484375 C 20.625 -29.046875 20.046875 -27.34375 20.046875 -25.375 L 20.046875 0 Z M 5.078125 0 "/></g></g></g><g fill="#2563eb" fill-opacity="1"><g transform="translate(104.186314, 207.384361)"><g><path d="M 6.515625 -67.578125 C 8.265625 -69.328125 10.347656 -70.203125 12.765625 -70.203125 C 15.191406 -70.203125 17.28125 -69.328125 19.03125 -67.578125 C 20.78125 -65.828125 21.65625 -63.738281 21.65625 -61.3125 C 21.65625 -58.894531 20.78125 -56.8125 19.03125 -55.0625 C 17.28125 -53.3125 15.191406 -52.4375 12.765625 -52.4375 C 10.347656 -52.4375 8.265625 -53.3125 6.515625 -55.0625 C 4.765625 -56.8125 3.890625 -58.894531 3.890625 -61.3125 C 3.890625 -63.738281 4.765625 -65.828125 6.515625 -67.578125 Z M 5.078125 -43.390625 L 5.078125 0 L 20.046875 0 L 20.046875 -43.390625 Z M 5.078125 -43.390625 "/></g></g></g><g fill="#2563eb" fill-opacity="1"><g transform="translate(121.776855, 207.384361)"><g><path d="M 5.078125 0 L 5.078125 -43.390625 L 20.046875 -43.390625 L 20.046875 -38.828125 L 20.21875 -38.828125 C 24.101562 -42.710938 28.242188 -44.65625 32.640625 -44.65625 C 34.785156 -44.65625 36.914062 -44.375 39.03125 -43.8125 C 41.144531 -43.25 43.175781 -42.375 45.125 -41.1875 C 47.070312 -40 48.648438 -38.320312 49.859375 -36.15625 C 51.066406 -33.988281 51.671875 -31.46875 51.671875 -28.59375 L 51.671875 0 L 36.703125 0 L 36.703125 -24.53125 C 36.703125 -26.78125 35.984375 -28.75 34.546875 -30.4375 C 33.109375 -32.132812 31.234375 -32.984375 28.921875 -32.984375 C 26.671875 -32.984375 24.628906 -32.109375 22.796875 -30.359375 C 20.960938 -28.609375 20.046875 -26.664062 20.046875 -24.53125 L 20.046875 0 Z M 5.078125 0 "/></g></g></g><g fill="#2563eb" fill-opacity="1"><g transform="translate(169.72952, 207.384361)"><g><path d="M 23.9375 -44.65625 C 26.414062 -44.65625 28.867188 -44.375 31.296875 -43.8125 C 33.722656 -43.25 35.523438 -42.6875 36.703125 -42.125 L 38.484375 -41.28125 L 33.578125 -31.46875 C 30.191406 -33.269531 26.976562 -34.171875 23.9375 -34.171875 C 22.238281 -34.171875 21.035156 -33.984375 20.328125 -33.609375 C 19.628906 -33.242188 19.28125 -32.554688 19.28125 -31.546875 C 19.28125 -31.316406 19.304688 -31.085938 19.359375 -30.859375 C 19.421875 -30.640625 19.535156 -30.429688 19.703125 -30.234375 C 19.867188 -30.035156 20.023438 -29.863281 20.171875 -29.71875 C 20.316406 -29.582031 20.554688 -29.429688 20.890625 -29.265625 C 21.222656 -29.097656 21.488281 -28.96875 21.6875 -28.875 C 21.882812 -28.789062 22.207031 -28.664062 22.65625 -28.5 C 23.113281 -28.332031 23.453125 -28.207031 23.671875 -28.125 C 23.898438 -28.039062 24.28125 -27.910156 24.8125 -27.734375 C 25.351562 -27.566406 25.765625 -27.457031 26.046875 -27.40625 C 27.796875 -26.894531 29.316406 -26.328125 30.609375 -25.703125 C 31.910156 -25.085938 33.28125 -24.242188 34.71875 -23.171875 C 36.15625 -22.097656 37.269531 -20.742188 38.0625 -19.109375 C 38.851562 -17.472656 39.25 -15.613281 39.25 -13.53125 C 39.25 -3.664062 32.394531 1.265625 18.6875 1.265625 C 15.59375 1.265625 12.648438 0.785156 9.859375 -0.171875 C 7.066406 -1.128906 5.050781 -2.085938 3.8125 -3.046875 L 1.9375 -4.5625 L 8.03125 -14.796875 C 8.488281 -14.398438 9.082031 -13.9375 9.8125 -13.40625 C 10.539062 -12.875 11.863281 -12.140625 13.78125 -11.203125 C 15.695312 -10.273438 17.363281 -9.8125 18.78125 -9.8125 C 21.875 -9.8125 23.421875 -10.851562 23.421875 -12.9375 C 23.421875 -13.894531 23.023438 -14.640625 22.234375 -15.171875 C 21.453125 -15.710938 20.113281 -16.320312 18.21875 -17 C 16.332031 -17.675781 14.851562 -18.296875 13.78125 -18.859375 C 11.070312 -20.265625 8.925781 -21.851562 7.34375 -23.625 C 5.769531 -25.40625 4.984375 -27.765625 4.984375 -30.703125 C 4.984375 -35.097656 6.6875 -38.519531 10.09375 -40.96875 C 13.507812 -43.425781 18.125 -44.65625 23.9375 -44.65625 Z M 23.9375 -44.65625 "/></g></g></g><g fill="#2563eb" fill-opacity="1"><g transform="translate(203.389155, 207.384361)"><g><path d="M 6.515625 -67.578125 C 8.265625 -69.328125 10.347656 -70.203125 12.765625 -70.203125 C 15.191406 -70.203125 17.28125 -69.328125 19.03125 -67.578125 C 20.78125 -65.828125 21.65625 -63.738281 21.65625 -61.3125 C 21.65625 -58.894531 20.78125 -56.8125 19.03125 -55.0625 C 17.28125 -53.3125 15.191406 -52.4375 12.765625 -52.4375 C 10.347656 -52.4375 8.265625 -53.3125 6.515625 -55.0625 C 4.765625 -56.8125 3.890625 -58.894531 3.890625 -61.3125 C 3.890625 -63.738281 4.765625 -65.828125 6.515625 -67.578125 Z M 5.078125 -43.390625 L 5.078125 0 L 20.046875 0 L 20.046875 -43.390625 Z M 5.078125 -43.390625 "/></g></g></g><g fill="#2563eb" fill-opacity="1"><g transform="translate(220.979696, 207.384361)"><g><path d="M 6.515625 -67.578125 C 8.265625 -69.328125 10.347656 -70.203125 12.765625 -70.203125 C 15.191406 -70.203125 17.28125 -69.328125 19.03125 -67.578125 C 20.78125 -65.828125 21.65625 -63.738281 21.65625 -61.3125 C 21.65625 -58.894531 20.78125 -56.8125 19.03125 -55.0625 C 17.28125 -53.3125 15.191406 -52.4375 12.765625 -52.4375 C 10.347656 -52.4375 8.265625 -53.3125 6.515625 -55.0625 C 4.765625 -56.8125 3.890625 -58.894531 3.890625 -61.3125 C 3.890625 -63.738281 4.765625 -65.828125 6.515625 -67.578125 Z M 5.078125 -43.390625 L 5.078125 0 L 20.046875 0 L 20.046875 -43.390625 Z M 5.078125 -43.390625 "/></g></g></g><g fill="#2563eb" fill-opacity="1"><g transform="translate(238.570248, 207.384361)"><g><path d="M 8.03125 -5.375 C 3.96875 -9.800781 1.9375 -15.226562 1.9375 -21.65625 C 1.9375 -28.082031 3.96875 -33.519531 8.03125 -37.96875 C 12.09375 -42.425781 17.253906 -44.65625 23.515625 -44.65625 C 29.265625 -44.65625 34 -42.851562 37.71875 -39.25 L 37.71875 -72.734375 L 52.6875 -72.734375 L 52.6875 0 L 37.890625 0 L 37.890625 -4.90625 L 37.71875 -4.90625 C 34 -0.789062 29.265625 1.265625 23.515625 1.265625 C 17.253906 1.265625 12.09375 -0.945312 8.03125 -5.375 Z M 20.765625 -29.015625 C 18.816406 -27.097656 17.84375 -24.644531 17.84375 -21.65625 C 17.84375 -18.664062 18.769531 -16.222656 20.625 -14.328125 C 22.488281 -12.441406 24.945312 -11.5 28 -11.5 C 30.925781 -11.5 33.332031 -12.457031 35.21875 -14.375 C 37.113281 -16.289062 38.0625 -18.71875 38.0625 -21.65625 C 38.0625 -24.644531 37.085938 -27.097656 35.140625 -29.015625 C 33.191406 -30.929688 30.8125 -31.890625 28 -31.890625 C 25.125 -31.890625 22.710938 -30.929688 20.765625 -29.015625 Z M 20.765625 -29.015625 "/></g></g></g><g fill="#2563eb" fill-opacity="1"><g transform="translate(288.383561, 207.384361)"><g><path d="M 8.03125 -5.375 C 3.96875 -9.800781 1.9375 -15.226562 1.9375 -21.65625 C 1.9375 -28.082031 3.96875 -33.519531 8.03125 -37.96875 C 12.09375 -42.425781 17.253906 -44.65625 23.515625 -44.65625 C 29.265625 -44.65625 34 -42.851562 37.71875 -39.25 L 37.71875 -43.390625 L 52.6875 -43.390625 L 52.6875 0 L 37.890625 0 L 37.890625 -4.90625 L 37.71875 -4.90625 C 34 -0.789062 29.265625 1.265625 23.515625 1.265625 C 17.253906 1.265625 12.09375 -0.945312 8.03125 -5.375 Z M 20.765625 -29.015625 C 18.816406 -27.097656 17.84375 -24.644531 17.84375 -21.65625 C 17.84375 -18.664062 18.769531 -16.222656 20.625 -14.328125 C 22.488281 -12.441406 24.945312 -11.5 28 -11.5 C 30.925781 -11.5 33.332031 -12.457031 35.21875 -14.375 C 37.113281 -16.289062 38.0625 -18.71875 38.0625 -21.65625 C 38.0625 -24.644531 37.085938 -27.097656 35.140625 -29.015625 C 33.191406 -30.929688 30.8125 -31.890625 28 -31.890625 C 25.125 -31.890625 22.710938 -30.929688 20.765625 -29.015625 Z M 20.765625 -29.015625 "/></g></g></g></svg>